<svg width="178" height="178" viewBox="0 0 178 178" fill="none" xmlns="http://www.w3.org/2000/svg">
<path d="M56 56C56 58.7614 53.7614 61 51 61C48.2386 61 46 58.7614 46 56C46 53.2386 48.2386 51 51 51C53.7614 51 56 53.2386 56 56Z" fill="black"/>
<path d="M136 56C136 58.7614 133.761 61 131 61C128.239 61 126 58.7614 126 56C126 53.2386 128.239 51 131 51C133.761 51 136 53.2386 136 56Z" fill="black"/>
<path d="M111.674 121.605C112.72 120.321 114.61 120.128 115.895 121.174C117.179 122.22 117.372 124.11 116.326 125.395C111.232 131.646 102.838 134.609 95.0176 135.944C87.0961 137.297 79.1235 137.09 74.1348 136.478C72.4905 136.276 71.3208 134.779 71.5225 133.135C71.7244 131.49 73.221 130.321 74.8652 130.522C79.3765 131.076 86.7546 131.269 94.0078 130.03C101.362 128.774 107.968 126.153 111.674 121.605Z" fill="black"/>
<path fill-rule="evenodd" clip-rule="evenodd" d="M89 0C108.764 0 127.023 6.44356 141.792 17.3428H153C165.703 17.3428 176 27.6402 176 40.3428V60.3428L175.992 60.9365C175.943 62.8824 175.65 64.7676 175.146 66.5645C177.008 73.7319 178 81.2501 178 89C178 138.153 138.153 178 89 178C39.8467 178 0 138.153 0 89C0 81.6957 0.879435 74.5968 2.53906 67.8037C1.73708 65.464 1.30078 62.9544 1.30078 60.3428V40.3428C1.30078 27.6402 11.5982 17.3428 24.3008 17.3428H36.208C50.9774 6.44356 69.2359 0 89 0ZM88.5 50C81.6062 50.0001 78.0552 54.3476 77.3008 56.083V60.3428L77.293 60.9365C76.983 73.1673 67.1254 83.025 54.8945 83.335L54.3008 83.3428H24.3008L23.707 83.335C17.0918 83.1673 11.1708 80.2065 7.0791 75.5879C6.36977 79.9538 6 84.4337 6 89C6 134.84 43.1604 172 89 172C134.84 172 172 134.84 172 89C172 84.1937 171.59 79.483 170.806 74.9004C166.704 79.9107 160.531 83.1592 153.594 83.335L153 83.3428H123L122.406 83.335C109.978 83.02 100 72.8468 100 60.3428V56.6562C99.9253 56.5432 99.8562 56.4244 99.7959 56.2988C98.8715 54.3748 95.395 50 88.5 50ZM38.2207 23.3428C24.0995 34.2801 13.6017 49.6709 8.83594 67.4102C11.5186 73.2708 17.4338 77.3428 24.3008 77.3428H54.3008C63.6896 77.3428 71.3008 69.7316 71.3008 60.3428V40.3428C71.3008 30.9539 63.6896 23.3428 54.3008 23.3428H38.2207ZM123 23.3428C113.611 23.3428 106 30.9539 106 40.3428V60.3428C106 69.7316 113.611 77.3428 123 77.3428H153C160.254 77.3428 166.444 72.7991 168.886 66.4033C163.998 49.0887 153.633 34.0726 139.779 23.3428H123ZM24.3008 23.3428C14.9119 23.3428 7.30078 30.9539 7.30078 40.3428V53.6436C12.3215 42.0579 19.7339 31.7501 28.916 23.3428H24.3008ZM149.084 23.3428C157.849 31.368 165.001 41.1251 170 52.0723V40.3428C170 30.9539 162.389 23.3428 153 23.3428H149.084ZM89 6C73.7131 6 59.3919 10.1336 47.0918 17.3428H54.3008C67.0033 17.3428 77.3008 27.6402 77.3008 40.3428V47.377C80.0672 45.46 83.7957 44 88.5 44C93.4509 44 97.2456 45.6085 100 47.6387V40.3428C100 27.6402 110.297 17.3428 123 17.3428H130.908C118.608 10.1336 104.287 6 89 6Z" fill="black"/>
</svg>
