<svg width="343" height="247" viewBox="0 0 343 247" fill="none" xmlns="http://www.w3.org/2000/svg">
<path d="M34.9802 23.6171L50.9395 29.3856C51.5914 29.6213 52.2795 29.1424 52.2795 28.4492V15.1025C52.2795 12.4484 57.2248 10.1249 62.3382 10.1249C67.4516 10.1249 72.3971 12.9462 72.3971 15.1025V44.389C72.3971 45.9167 71.6986 47.3467 70.5008 48.2951L68.7317 49.6958C67.8483 50.3952 66.7546 50.7758 65.6279 50.7758H59.1471C58.5948 50.7758 58.1471 51.2235 58.1471 51.7758V58.9967C58.1471 59.4358 58.4301 59.8229 58.848 59.9577C60.8182 60.5935 66.5232 62.5102 70.531 64.6223C71.7239 65.251 72.3971 66.5124 72.3971 67.8608V97.565C72.397 100.054 67.4478 102.424 62.3383 102.543C56.9734 102.667 51.4413 100.054 51.4412 97.565L51.4412 84.5212C51.4412 83.8363 50.7684 83.3584 50.1199 83.5784L35.8742 88.4123C34.6571 88.8253 33.8383 89.966 33.8382 91.2513C33.8381 94.0287 33.838 98.8304 33.8383 101.547C33.8383 106.008 45.5216 110.138 49.8517 111.516C50.9038 111.85 52.0012 112 53.1052 112H70.8941C71.8922 112 72.879 111.88 73.8374 111.601C78.0414 110.379 90 106.47 90 101.547V65.5112C90 63.1089 88.9205 60.845 87.0597 59.3257L84.1345 56.9373C83.6819 56.5677 83.6412 55.8904 84.0464 55.4693L87.7645 51.6056C89.1988 50.1151 90 48.1379 90 46.0694V10.9552C87.9994 6.20349 78.5725 2.71182 74.8007 1.48251C73.7628 1.14422 72.6818 1 71.5902 1H51.2272C50.2559 1 49.2907 1.11388 48.3668 1.41382C45.371 2.38635 38.1837 5.1836 33.0001 10.9552C33 13.9412 33 18.2542 33 20.7984C33.0001 22.062 33.7919 23.1875 34.9802 23.6171Z" fill="black"/>
<path fill-rule="evenodd" clip-rule="evenodd" d="M173.776 1C188.811 1 201 8.13103 201 16.9276V46.2941C201 55.0907 188.811 62.2217 173.776 62.2217H162.716V111H149.104C146.285 111 144 109.663 144 108.014V1H173.776ZM162.716 11.9502V51.2715H172.075C178.653 51.2715 183.985 48.1517 183.985 44.3032V18.9186C183.985 15.0701 178.653 11.9502 172.075 11.9502H162.716Z" fill="black"/>
<path fill-rule="evenodd" clip-rule="evenodd" d="M280.316 0C294.501 6.44258e-08 306 7.16344 306 16V98C306 106.837 294.501 114 280.316 114H270.684C256.499 114 245 106.837 245 98V16C245 7.16344 256.499 6.44258e-08 270.684 0H280.316ZM275.5 9.83398C269.294 9.83398 264.263 12.968 264.263 16.834V95.834C264.263 99.7 269.294 102.834 275.5 102.834C281.706 102.834 286.737 99.7 286.737 95.834V16.834C286.737 12.968 281.706 9.83398 275.5 9.83398Z" fill="black"/>
<path d="M32 246V127H50.0732C51.73 127 53.0732 128.343 53.0732 130V234C53.0732 234.552 53.5209 235 54.0732 235H94.055C94.8687 235 95.3417 235.92 94.8683 236.582L90.107 243.237C88.4172 245.599 85.6916 247 82.7874 247H33C32.4477 247 32 246.552 32 246Z" fill="black"/>
<path d="M154.885 127L129.264 244.787C129.128 245.411 129.603 246 130.241 246H147.409C147.886 246 148.296 245.663 148.39 245.196L164.5 164.5L179.876 245.187C179.966 245.659 180.379 246 180.859 246H198.744C199.387 246 199.863 245.402 199.719 244.776L173.706 131.655C173.079 128.931 170.654 127 167.859 127H154.885Z" fill="black"/>
<path fill-rule="evenodd" clip-rule="evenodd" d="M284.316 127C298.501 127 310 134.163 310 143V176.541C310 178.451 308.904 180.297 306.909 181.747L301.298 185.824C300.768 186.209 300.785 186.781 301.337 187.153L306.595 190.701C308.785 192.179 310 194.117 310 196.128V230C310 238.837 298.501 246 284.316 246H249V127H284.316ZM268.263 193V235H277.895C284.101 235 289.132 231.866 289.132 228V200C289.132 196.134 284.101 193 277.895 193H268.263ZM268.263 182H277.895C284.101 182 289.132 178.866 289.132 175V146C289.132 142.134 284.101 139 277.895 139H268.263V182Z" fill="black"/>
</svg>
