<svg width="255" height="247" viewBox="0 0 255 247" fill="none" xmlns="http://www.w3.org/2000/svg">
<path d="M2.94019 23.7106L11.4801 28.9088C12.1465 29.3144 13.0001 28.8396 13.0001 28.0595V15C13.0001 12.334 15.9499 10 19 10C22.0501 10 25.0001 12.834 25.0001 15V45.1828C25.0001 46.2646 24.6492 47.3018 24.0001 48.1673L23.5001 48.834C22.5558 50.093 21.0738 50.834 19.5001 50.834H17.5001C16.9478 50.834 16.5001 51.2817 16.5001 51.834V59.2257C16.5001 59.5994 16.7073 59.9416 17.035 60.1211C18.308 60.8181 21.5835 62.6947 23.9 64.7545C24.6418 65.4141 25.0001 66.3768 25.0001 67.3695V97.834C25 100.334 22.0478 102.715 19.0001 102.834C15.8 102.959 12.5001 100.334 12.5001 97.834L12.5001 85.0521C12.5001 84.2843 11.6706 83.808 11.0039 84.1889L3.51157 88.4703C2.57688 89.0044 2.00003 89.9979 2 91.0744C1.99992 93.7754 1.99982 98.9634 2.00006 101.834C2.00006 105.638 7.02288 109.203 10.1206 111.04C11.656 111.95 13.4263 112.334 15.2113 112.334H22.537C24.1621 112.334 25.7751 112.018 27.2003 111.237C30.2791 109.55 35.5001 106.065 35.5001 101.834V64.4189C35.5001 62.7281 34.9644 61.0974 33.9699 59.7301L31.8804 56.8569C31.6489 56.5387 31.6256 56.1143 31.8209 55.7726L34.446 51.1786C35.1367 49.9698 35.5001 48.6153 35.5001 47.223V10.834C34.51 6.87401 30.4709 3.78523 27.8387 2.14261C26.34 1.20739 24.5841 0.833984 22.8176 0.833984H13.9C12.3157 0.833984 10.7338 1.13665 9.41035 2.00754C7.30173 3.39509 4.00781 6.13188 1.50006 10.834L1.50003 21.1512C1.50005 22.1981 2.04587 23.1662 2.94019 23.7106Z" fill="black"/>
<path fill-rule="evenodd" clip-rule="evenodd" d="M129.5 0.833984C138.337 0.833984 145.5 7.99743 145.5 16.834V46.334C145.5 55.1705 138.337 62.334 129.5 62.334H123V111.334H115C113.343 111.334 112 109.991 112 108.334V0.833984H129.5ZM123 11.834V51.334H128.5C132.366 51.334 135.5 48.2 135.5 44.334V18.834C135.5 14.968 132.366 11.834 128.5 11.834H123Z" fill="black"/>
<path fill-rule="evenodd" clip-rule="evenodd" d="M235 0C243.837 6.44258e-08 251 7.16344 251 16V98C251 106.837 243.837 114 235 114H229C220.163 114 213 106.837 213 98V16C213 7.16344 220.163 6.44258e-08 229 0H235ZM232 9.83398C228.134 9.83398 225 12.968 225 16.834V95.834C225 99.7 228.134 102.834 232 102.834C235.866 102.834 239 99.7 239 95.834V16.834C239 12.968 235.866 9.83398 232 9.83398Z" fill="black"/>
<path d="M0 246V127H10.5C12.1569 127 13.5 128.343 13.5 130V234C13.5 234.552 13.9477 235 14.5 235H39.4416C40.1703 235 40.6543 235.754 40.3507 236.417L37.9063 241.75C36.4401 244.949 33.2438 247 29.7247 247H1C0.447715 247 0 246.552 0 246Z" fill="black"/>
<path d="M114 127L96.6685 244.855C96.5797 245.458 97.0476 246 97.6578 246H108.626C109.126 246 109.55 245.63 109.617 245.134L120.5 164.5L130.888 245.128C130.952 245.627 131.377 246 131.879 246H143.333C143.946 246 144.415 245.453 144.321 244.846L126.789 132.078C126.335 129.156 123.819 127 120.861 127H114Z" fill="black"/>
<path fill-rule="evenodd" clip-rule="evenodd" d="M239 127C247.837 127 255 134.163 255 143V176.541C255 178.451 254.317 180.297 253.074 181.747L249.579 185.824C249.249 186.209 249.26 186.781 249.604 187.153L252.879 190.701C254.243 192.179 255 194.117 255 196.128V230C255 238.837 247.837 246 239 246H217V127H239ZM229 193V235H235C238.866 235 242 231.866 242 228V200C242 196.134 238.866 193 235 193H229ZM229 182H235C238.866 182 242 178.866 242 175V146C242 142.134 238.866 139 235 139H229V182Z" fill="black"/>
</svg>
