<svg width="460" height="247" viewBox="0 0 460 247" fill="none" xmlns="http://www.w3.org/2000/svg">
<path d="M56 89C56 91.7614 53.7614 94 51 94C48.2386 94 46 91.7614 46 89C46 86.2386 48.2386 84 51 84C53.7614 84 56 86.2386 56 89Z" fill="black"/>
<path d="M136 89C136 91.7614 133.761 94 131 94C128.239 94 126 91.7614 126 89C126 86.2386 128.239 84 131 84C133.761 84 136 86.2386 136 89Z" fill="black"/>
<path d="M111.674 154.605C112.72 153.321 114.61 153.128 115.895 154.174C117.179 155.22 117.372 157.11 116.326 158.395C111.232 164.646 102.838 167.609 95.0176 168.944C87.0961 170.297 79.1235 170.09 74.1348 169.478C72.4905 169.276 71.3208 167.779 71.5225 166.135C71.7244 164.49 73.221 163.321 74.8652 163.522C79.3765 164.076 86.7546 164.269 94.0078 163.03C101.362 161.774 107.968 159.153 111.674 154.605Z" fill="black"/>
<path fill-rule="evenodd" clip-rule="evenodd" d="M89 33C108.764 33 127.023 39.4436 141.792 50.3428H153C165.703 50.3428 176 60.6402 176 73.3428V93.3428L175.992 93.9365C175.943 95.8824 175.65 97.7676 175.146 99.5645C177.008 106.732 178 114.25 178 122C178 171.153 138.153 211 89 211C39.8467 211 0 171.153 0 122C0 114.696 0.879435 107.597 2.53906 100.804C1.73708 98.464 1.30078 95.9544 1.30078 93.3428V73.3428C1.30078 60.6402 11.5982 50.3428 24.3008 50.3428H36.208C50.9774 39.4436 69.2359 33 89 33ZM88.5 83C81.6062 83.0001 78.0552 87.3476 77.3008 89.083V93.3428L77.293 93.9365C76.983 106.167 67.1254 116.025 54.8945 116.335L54.3008 116.343H24.3008L23.707 116.335C17.0918 116.167 11.1708 113.206 7.0791 108.588C6.36977 112.954 6 117.434 6 122C6 167.84 43.1604 205 89 205C134.84 205 172 167.84 172 122C172 117.194 171.59 112.483 170.806 107.9C166.704 112.911 160.531 116.159 153.594 116.335L153 116.343H123L122.406 116.335C109.978 116.02 100 105.847 100 93.3428V89.6562C99.9253 89.5432 99.8562 89.4244 99.7959 89.2988C98.8715 87.3748 95.395 83 88.5 83ZM38.2207 56.3428C24.0995 67.2801 13.6017 82.6709 8.83594 100.41C11.5186 106.271 17.4338 110.343 24.3008 110.343H54.3008C63.6896 110.343 71.3008 102.732 71.3008 93.3428V73.3428C71.3008 63.9539 63.6896 56.3428 54.3008 56.3428H38.2207ZM123 56.3428C113.611 56.3428 106 63.9539 106 73.3428V93.3428C106 102.732 113.611 110.343 123 110.343H153C160.254 110.343 166.444 105.799 168.886 99.4033C163.998 82.0887 153.633 67.0726 139.779 56.3428H123ZM24.3008 56.3428C14.9119 56.3428 7.30078 63.9539 7.30078 73.3428V86.6436C12.3215 75.0579 19.7339 64.7501 28.916 56.3428H24.3008ZM149.084 56.3428C157.849 64.368 165.001 74.1251 170 85.0723V73.3428C170 63.9539 162.389 56.3428 153 56.3428H149.084ZM89 39C73.7131 39 59.3919 43.1336 47.0918 50.3428H54.3008C67.0033 50.3428 77.3008 60.6402 77.3008 73.3428V80.377C80.0672 78.46 83.7957 77 88.5 77C93.4509 77 97.2456 78.6085 100 80.6387V73.3428C100 60.6402 110.297 50.3428 123 50.3428H130.908C118.608 43.1336 104.287 39 89 39Z" fill="black"/>
<path d="M207.94 23.7106L216.48 28.9088C217.147 29.3144 218 28.8396 218 28.0595V15C218 12.334 220.95 10 224 10C227.05 10 230 12.834 230 15V45.1828C230 46.2646 229.649 47.3018 229 48.1673L228.5 48.834C227.556 50.093 226.074 50.834 224.5 50.834H222.5C221.948 50.834 221.5 51.2817 221.5 51.834V59.2257C221.5 59.5994 221.707 59.9416 222.035 60.1211C223.308 60.8181 226.584 62.6947 228.9 64.7545C229.642 65.4141 230 66.3768 230 67.3695V97.834C230 100.334 227.048 102.715 224 102.834C220.8 102.959 217.5 100.334 217.5 97.834L217.5 85.0521C217.5 84.2843 216.671 83.808 216.004 84.1889L208.512 88.4703C207.577 89.0044 207 89.9979 207 91.0744C207 93.7754 207 98.9634 207 101.834C207 105.638 212.023 109.203 215.121 111.04C216.656 111.95 218.426 112.334 220.211 112.334H227.537C229.162 112.334 230.775 112.018 232.2 111.237C235.279 109.55 240.5 106.065 240.5 101.834V64.4189C240.5 62.7281 239.964 61.0974 238.97 59.7301L236.88 56.8569C236.649 56.5387 236.626 56.1143 236.821 55.7726L239.446 51.1786C240.137 49.9698 240.5 48.6153 240.5 47.223V10.834C239.51 6.87401 235.471 3.78523 232.839 2.14261C231.34 1.20739 229.584 0.833984 227.818 0.833984H218.9C217.316 0.833984 215.734 1.13665 214.41 2.00754C212.302 3.39509 209.008 6.13188 206.5 10.834L206.5 21.1512C206.5 22.1981 207.046 23.1662 207.94 23.7106Z" fill="black"/>
<path fill-rule="evenodd" clip-rule="evenodd" d="M334.5 0.833984C343.337 0.833984 350.5 7.99743 350.5 16.834V46.334C350.5 55.1705 343.337 62.334 334.5 62.334H328V111.334H320C318.343 111.334 317 109.991 317 108.334V0.833984H334.5ZM328 11.834V51.334H333.5C337.366 51.334 340.5 48.2 340.5 44.334V18.834C340.5 14.968 337.366 11.834 333.5 11.834H328Z" fill="black"/>
<path fill-rule="evenodd" clip-rule="evenodd" d="M440 0C448.837 6.44258e-08 456 7.16344 456 16V98C456 106.837 448.837 114 440 114H434C425.163 114 418 106.837 418 98V16C418 7.16344 425.163 6.44258e-08 434 0H440ZM437 9.83398C433.134 9.83398 430 12.968 430 16.834V95.834C430 99.7 433.134 102.834 437 102.834C440.866 102.834 444 99.7 444 95.834V16.834C444 12.968 440.866 9.83398 437 9.83398Z" fill="black"/>
<path d="M205 246V127H215.5C217.157 127 218.5 128.343 218.5 130V234C218.5 234.552 218.948 235 219.5 235H244.442C245.17 235 245.654 235.754 245.351 236.417L242.906 241.75C241.44 244.949 238.244 247 234.725 247H206C205.448 247 205 246.552 205 246Z" fill="black"/>
<path d="M319 127L301.668 244.855C301.58 245.458 302.048 246 302.658 246H313.626C314.126 246 314.55 245.63 314.617 245.134L325.5 164.5L335.888 245.128C335.952 245.627 336.377 246 336.879 246H348.333C348.946 246 349.415 245.453 349.321 244.846L331.789 132.078C331.335 129.156 328.819 127 325.861 127H319Z" fill="black"/>
<path fill-rule="evenodd" clip-rule="evenodd" d="M444 127C452.837 127 460 134.163 460 143V176.541C460 178.451 459.317 180.297 458.074 181.747L454.579 185.824C454.249 186.209 454.26 186.781 454.604 187.153L457.879 190.701C459.243 192.179 460 194.117 460 196.128V230C460 238.837 452.837 246 444 246H422V127H444ZM434 193V235H440C443.866 235 447 231.866 447 228V200C447 196.134 443.866 193 440 193H434ZM434 182H440C443.866 182 447 178.866 447 175V146C447 142.134 443.866 139 440 139H434V182Z" fill="black"/>
</svg>
