<svg width="260" height="45" viewBox="0 0 260 45" fill="none" xmlns="http://www.w3.org/2000/svg">
<path d="M0 0.792969V8.58351H20.8512C24.059 8.58351 25.4338 11.5623 25.4338 12.9371C25.4338 15.9158 24.2882 18.2071 21.7677 18.2071H3.89527V26.2268H19.2472C23.4633 26.2268 25.4338 28.7473 25.4338 31.0386C25.4338 33.33 24.7464 36.5378 20.8512 36.5378H0V44.0992H24.7464C29.5582 44.0992 35.5157 39.9748 35.5157 33.7882C35.5157 26.0893 31.8496 22.9426 30.0165 22.3315C31.8496 20.4221 35.5157 20.0402 35.5157 12.4788C35.5157 5.60478 29.7874 0.792969 24.2882 0.792969H0Z" fill="white"/>
<path fill-rule="evenodd" clip-rule="evenodd" d="M63.2409 0.675781C72.1771 0.675781 77.4472 7.32066 77.4472 15.7986C77.4472 24.2765 71.2606 29.0884 63.2409 29.0884H47.8889V44.2112H38.2653V0.675781H63.2409ZM47.8889 8.69546V21.5269H60.9496C65.9905 21.5269 67.1362 17.4025 67.1362 14.4238C67.1362 10.5285 64.6157 8.69546 60.2622 8.69546H47.8889Z" fill="white"/>
<path fill-rule="evenodd" clip-rule="evenodd" d="M101.521 0.445312C109.77 0.674466 122.831 2.73676 123.06 21.0673C123.289 39.398 114.124 44.2098 101.98 44.439C89.8354 44.6681 79.7535 38.7106 80.2118 21.9839C80.6701 5.25712 89.3772 0.445312 101.521 0.445312ZM101.557 7.78117C94.6471 7.78117 90.5219 12.3603 90.5219 22.4421C90.5219 33.5958 95.1049 37.2345 101.861 37.1063C108.618 36.978 112.9 33.7442 112.748 21.5256C112.596 9.30696 106.562 7.78118 101.557 7.78117Z" fill="white"/>
<path fill-rule="evenodd" clip-rule="evenodd" d="M152.851 30.1207C152.851 33.5577 155.601 36.3074 158.809 36.3074H173.473V40.4318L189.742 0.5625H200.511L218.613 44.327H207.614L203.49 34.2452H186.763L182.639 44.327H156.747C148.956 44.327 143.228 36.9948 143.228 30.1207V0.5625H152.851V30.1207ZM189.055 26.4546H201.199L195.241 11.3318L189.055 26.4546Z" fill="white"/>
<path fill-rule="evenodd" clip-rule="evenodd" d="M249.088 0.90625C254.128 0.90625 259.399 5.03066 259.399 11.2173C259.399 19.4661 255.274 21.1464 253.212 22.6739C255.274 23.2086 259.399 26.0193 259.399 32.985C259.399 41.692 252.983 43.9834 247.942 43.9834H220.904V0.90625H249.088ZM229.84 26.5692V36.422H244.047C247.713 36.422 249.088 33.2141 249.088 30.6936C249.088 28.1732 247.484 26.5692 242.901 26.5692H229.84ZM229.84 8.46766V18.3204C232.437 18.3968 238.596 18.6975 242.443 18.5495C248.4 18.3204 249.088 15.3417 249.088 12.5921C249.088 9.84246 246.109 8.46766 242.901 8.46766H229.84Z" fill="white"/>
</svg>
